<svg xmlns="http://www.w3.org/2000/svg" xmlns:xlink="http://www.w3.org/1999/xlink" width="395" height="419" shape-rendering="optimizeSpeed">
                
            <g>
                <rect x="50" y="80" width="81.2" height="30" style="fill:#a5d6a7; stroke:#444; stroke-width:1"/>
                    
                <line x1="60" y1="80" x2="60" y2="110" style="fill:#a5d6a7; stroke:#444; stroke-width:1"/>
                <line x1="121.19999999999999" y1="80" x2="121.19999999999999" y2="110" style="fill:#a5d6a7; stroke:#444; stroke-width:1"/>
             
                <title>Main</title>
            <text x="75" y="100" font-family="monospace" font-size="13" fill="#222">
                <tspan x="75" y="100">Main</tspan>
            </text>
                
            </g>
                <g>
                   <rect x="87" y="128.5" width="115.8" height="30" rx="3" ry="3" style="fill:#90caf9; stroke:#444; stroke-width:1"/>
                   <title>counter ← 1</title>
            <text x="102" y="148.5" font-family="monospace" font-size="13" fill="#222">
                <tspan x="102" y="148.5">counter ← 1</tspan>
            </text>
                   
                   
                </g><g>

            <rect x="117" y="212" width="200.4" height="30" rx="3" ry="3" style="fill:#b39ddb; stroke:#444; stroke-width:1"/>
            <polygon points="87,227 117,197 147,227 117,257" style="fill:#b39ddb; stroke:#444; stroke-width:1"/>
                
            <title>while counter &lt;= 5</title>
            <text x="162" y="232" font-family="monospace" font-size="13" fill="#222">
                <tspan x="162" y="232">while counter &lt;= 5</tspan>
            </text>
            
            <text x="105.3" y="232" font-family="monospace" font-size="13" fill="#222">for</text>
        </g>
                <g>
                   <rect x="137" y="267" width="232.79999999999998" height="30" rx="3" ry="3" style="fill:#90caf9; stroke:#444; stroke-width:1"/>
                   <title>output "Count: " + counter</title>
            <text x="152" y="287" font-family="monospace" font-size="13" fill="#222">
                <tspan x="152" y="287">output "Count: " + counter</tspan>
            </text>
                   
                   
                </g>
                <g>
                   <rect x="137" y="315.5" width="193.79999999999998" height="30" rx="3" ry="3" style="fill:#90caf9; stroke:#444; stroke-width:1"/>
                   <title>counter ← counter + 1</title>
            <text x="152" y="335.5" font-family="monospace" font-size="13" fill="#222">
                <tspan x="152" y="335.5">counter ← counter + 1</tspan>
            </text>
                   
                   
                </g>
                <g>
                   <rect x="87" y="364" width="248.4" height="30" rx="3" ry="3" style="fill:#90caf9; stroke:#444; stroke-width:1"/>
                   <title>output "Done counting to 5!"</title>
            <text x="102" y="384" font-family="monospace" font-size="13" fill="#222">
                <tspan x="102" y="384">output "Done counting to 5!"</tspan>
            </text>
                   
                   
                </g>
            <g>
               <rect x="25" y="13.75" width="84" height="24" style="fill:#fff59d; stroke:#444; stroke-width:1"/>
               <circle cx="25" cy="25" r="15" style="fill:#fff59d; stroke:#444; stroke-width:1"/>
               <title>start</title>
            <text x="55" y="30" font-family="monospace" font-size="13" fill="#222">
                <tspan x="55" y="30">start</tspan>
            </text>
            </g>
            <g>
               <path d="M25, 40 L25 91 Q25 95&#10;                29 95&#10;                L42 95 " style="fill:none; stroke:#444; stroke-width:1"/>
               <path d="M42, 92 L50, 95 L42, 98 Z" fill="#333"/>
            </g>
            <g>
               <path d="M68.5, 110 L68.5 139.5 Q68.5 143.5&#10;                72.5 143.5&#10;                L79 143.5 " style="fill:none; stroke:#444; stroke-width:1"/>
               <path d="M79, 140.5 L87, 143.5 L79, 146.5 Z" fill="#333"/>
            </g>
            <g>
               <path d="M68.5, 110 L68.5 223 Q68.5 227&#10;                72.5 227&#10;                L79 227 " style="fill:none; stroke:#444; stroke-width:1"/>
               <path d="M79, 224 L87, 227 L79, 230 Z" fill="#333"/>
            </g>
            <g>
               <path d="M117, 257 L117 278 Q117 282&#10;                121 282&#10;                L129 282 " style="fill:none; stroke:#444; stroke-width:1"/>
               <path d="M129, 279 L137, 282 L129, 285 Z" fill="#333"/>
            </g>
            <g>
               <path d="M117, 257 L117 326.5 Q117 330.5&#10;                121 330.5&#10;                L129 330.5 " style="fill:none; stroke:#444; stroke-width:1"/>
               <path d="M129, 327.5 L137, 330.5 L129, 333.5 Z" fill="#333"/>
            </g>
            <g>
               <path d="M330.79999999999995, 330.5 L385.79999999999995 330.5  Q389.79999999999995 330.5&#10;                389.79999999999995 326.5&#10;                L389.79999999999995 185 Q389.79999999999995 177&#10;                385.79999999999995 177&#10;                L125 177  Q117 177&#10;                117 181&#10;                L117 189" style="fill:none; stroke:#444; stroke-width:1"/>
               <path d="M114, 189 L117, 197 L120, 189 Z" fill="#333"/>
            </g>
            <g>
               <path d="M68.5, 110 L68.5 375 Q68.5 379&#10;                72.5 379&#10;                L79 379 " style="fill:none; stroke:#444; stroke-width:1"/>
               <path d="M79, 376 L87, 379 L79, 382 Z" fill="#333"/>
            </g>
            </svg>